HIERARCHY
ROOT pelvis
{
  OFFSET 0 100 0
  CHANNELS 6 Xposition Yposition Zposition Zrotation Xrotation Yrotation
  JOINT pelvis_right_femur
  {
    OFFSET -10.78128 -3.44521 -0.5502486
    CHANNELS 3 Zrotation Xrotation Yrotation
    JOINT right_femur_tibia
    {
      OFFSET -0.8047443 -44.0398 -0.1307829
      CHANNELS 3 Zrotation Xrotation Yrotation
      JOINT right_tibia_foot
      {
        OFFSET 3.006224 -47.83518 -5
        CHANNELS 3 Zrotation Xrotation Yrotation
        End Site
        {
          OFFSET 0 -5 15
        }
      }
    }
  }
  JOINT pelvis_left_femur
  {
    OFFSET 10.78128 -3.44521 -0.5502486
    CHANNELS 3 Zrotation Xrotation Yrotation
    JOINT left_femur_tibia
    {
      OFFSET 0.8047443 -44.0398 -0.1307829
      CHANNELS 3 Zrotation Xrotation Yrotation
      JOINT left_tibia_foot
      {
        OFFSET -4.370144 -48.10324 -4.275266
        CHANNELS 3 Zrotation Xrotation Yrotation
        End Site
        {
          OFFSET 0 -5 15
        }
      }
    }
  }
  JOINT pelvis_spine1
  {
    OFFSET 0 6.468898 -3.129235
    CHANNELS 3 Zrotation Xrotation Yrotation
    JOINT spine1
    {
      OFFSET 0 23.15396 4.99043
      CHANNELS 3 Zrotation Xrotation Yrotation
      JOINT spine2
      {
        OFFSET 0 20.79997 -5.064912
        CHANNELS 3 Zrotation Xrotation Yrotation
        JOINT neck
        {
          OFFSET 0 14.38658 9.616178
          CHANNELS 3 Zrotation Xrotation Yrotation
          End Site
          {
            OFFSET 0 20 0
          }
        }
      }
      JOINT right_manubrium
      {
        OFFSET -5.722621 16.35077 3.967754
        CHANNELS 3 Zrotation Xrotation Yrotation
        JOINT right_clavicle
        {
          OFFSET -13.16364 1.694482 -4.693211
          CHANNELS 3 Zrotation Xrotation Yrotation
          JOINT right_humerus
          {
            OFFSET -28.5034 -0.3100689 -2.792744
            CHANNELS 3 Zrotation Xrotation Yrotation
            JOINT right_radius
            {
              OFFSET -25.15693 0.02248979 -1.271978
              CHANNELS 3 Zrotation Xrotation Yrotation
              End Site
              {
                OFFSET -15 0 0
              }
            }
          }
        }
      }
      JOINT left_manubrium
      {
        OFFSET 5.722621 16.35077 3.967754
        CHANNELS 3 Zrotation Xrotation Yrotation
        JOINT left_clavicle
        {
          OFFSET 13.16364 1.694482 -4.693211
          CHANNELS 3 Zrotation Xrotation Yrotation
          JOINT left_humerus
          {
            OFFSET 29.39168 -1.063119 -2.237045
            CHANNELS 3 Zrotation Xrotation Yrotation
            JOINT left_radius
            {
              OFFSET 24.59957 -0.9528479 0.9047498
              CHANNELS 3 Zrotation Xrotation Yrotation
              End Site
              {
                OFFSET 15 -0 -0
              }
            }
          }
        }
      }
    }
  }
}
MOTION
Frames: 11
Frame Time: 0.0416666666667
0 103.5113 0 2.172446 -1.183173 0.2656676 1.243816 -10.11826 8.711755 -0 34.3717 -0 -5.2829 -17.92075 -2.323442 -8.0238 10.08734 -23.48976 -0 5.143792 -0 7.674072 -16.16333 26.55876 -4.338708 -5.04497 4.952504 2.028549 9.209708 -7.748324 0.8371999 22.80199 7.173916 3.258305 -23.1096 8.802619 6.375107 -19.76399 11.57161 86.30554 35.94504 -19.78644 -0 0 16.26141 -7.581923 8.24601 4.623449 5.499273 -19.4671 -1.710129 -94.79285 29.75445 22.91991 0 0 -15.98432 3.494779 17.90015 9.575992
0.3512214 103.4949 1.370613 2.006259 -1.023068 0.4091242 1.501371 -11.16775 8.552037 -0 33.61959 -0 -5.355421 -17.4214 -2.232372 -7.866535 10.20498 -23.33399 -0 5.215911 -0 7.528297 -16.45748 26.34736 -4.280106 -4.834656 4.901555 2.137955 9.166824 -7.775377 0.8665211 22.66872 7.189228 3.299773 -23.25984 8.820092 6.359588 -19.71153 11.56508 86.28375 35.92156 -19.82673 -0 0 16.16933 -7.629701 8.284788 4.65631 5.583992 -19.49042 -1.737034 -94.71294 29.72591 22.74496 0 0 -16.26803 3.539468 17.80533 9.571043
0.7311073 103.4144 2.851209 1.794561 -0.7563469 0.4579063 1.808869 -12.63642 8.269321 -0 31.85036 -0 -5.438606 -16.59188 -1.947407 -7.680049 10.34909 -23.0707 -0 5.369774 -0 7.310339 -16.89158 26.01108 -4.221682 -4.54195 4.867105 2.304249 9.095389 -7.790129 0.9232275 22.45724 7.201897 3.369233 -23.47543 8.840518 6.318973 -19.60986 11.55644 86.26696 35.88779 -19.90213 -0 0 16.00779 -7.698745 8.344368 4.700209 5.741964 -19.54644 -1.763897 -94.58272 29.68116 22.44235 0 0 -16.73998 3.607043 17.66892 9.534569
1.149656 103.2218 4.493482 1.582188 -0.3581868 0.4198172 2.08782 -14.40827 7.83344 -0 28.61366 -0 -5.51316 -15.36542 -1.379512 -7.517925 10.50381 -22.66911 -0 5.660682 -0 7.015122 -17.4575 25.52123 -4.18554 -4.195158 4.881832 2.513444 8.991265 -7.765732 1.020181 22.16982 7.20193 3.471713 -23.74494 8.862434 6.234348 -19.43436 11.54197 86.27869 35.84424 -20.02947 -0 0 15.75498 -7.787955 8.427054 4.751957 5.987406 -19.65904 -1.776025 -94.3854 29.62117 21.98154 0 0 -17.42096 3.693684 17.49321 9.447143
1.612242 102.8761 6.355811 1.403749 0.1706295 0.326873 2.288879 -16.31337 7.24443 -0 23.89239 -0 -5.579487 -13.789 -0.5353492 -7.411544 10.66793 -22.11531 -0 6.149685 -0 6.626147 -18.11085 24.8494 -4.174559 -3.833236 4.946468 2.737338 8.85789 -7.699804 1.150816 21.83085 7.189024 3.601626 -24.04485 8.881954 6.099765 -19.18137 11.51374 86.3414 35.79215 -20.21232 -0 0 15.40437 -7.895811 8.535172 4.811577 6.302913 -19.83168 -1.766134 -94.11662 29.54263 21.37823 0 0 -18.26207 3.791413 17.27909 9.315408
2.116804 102.3697 8.507437 1.285551 0.8050058 0.23164 2.395313 -18.08977 6.534067 -0 18.10333 -0 -5.648094 -12.03784 0.4853331 -7.371117 10.85553 -21.40608 -0 6.932848 -0 6.105343 -18.75512 23.95308 -4.168564 -3.513657 5.025768 2.928797 8.705741 -7.618241 1.285733 21.49105 7.173292 3.741 -24.33511 8.890261 5.92228 -18.86684 11.45708 86.48235 35.73425 -20.44283 -0 0 14.95996 -8.020571 8.672814 4.882876 6.633698 -20.04524 -1.734781 -93.78333 29.43635 20.69899 0 0 -19.13132 3.886688 17.02428 9.175926
2.654891 101.7327 11.02296 1.226273 1.507911 0.1969392 2.425677 -19.48967 5.757181 -0 11.8517 -0 -5.740575 -10.3067 1.563558 -7.376077 11.06486 -20.55397 -0 8.124751 -0 5.407166 -19.26027 22.79776 -4.131934 -3.280891 5.079574 3.057037 8.544247 -7.554099 1.396108 21.18991 7.163713 3.871521 -24.58492 8.87737 5.718565 -18.50667 11.36529 86.71764 35.67348 -20.71483 -0 0 14.4275 -8.161466 8.843775 4.969293 6.916566 -20.26755 -1.691395 -93.40758 29.29268 20.02448 0 0 -19.89514 3.965705 16.72721 9.066424
3.2111 101.0393 13.97421 1.17674 2.225451 0.2857846 2.449831 -20.25235 5.014271 -0 6.020477 -0 -5.908191 -8.811838 2.564961 -7.349125 11.25148 -19.59339 -0 9.926366 -0 4.462322 -19.40842 21.35086 -3.998553 -3.159515 5.067323 3.12434 8.378879 -7.547659 1.458044 20.94111 7.164175 3.976229 -24.78136 8.829943 5.52036 -18.10521 11.24829 87.04821 35.61417 -21.03453 -0 0 13.8049 -8.320568 9.053462 5.072923 7.071527 -20.444 -1.660929 -93.03983 29.1006 19.45711 0 0 -20.42212 4.011784 16.38633 9.021838
3.766145 100.4017 17.42271 1.076548 2.894101 0.546074 2.54847 -20.14842 4.412326 -0 1.444815 -0 -6.195806 -7.743731 3.373686 -7.208246 11.33618 -18.56672 -0 12.57236 -0 3.222372 -18.95078 19.6081 -3.703172 -3.158241 4.96644 3.145607 8.216826 -7.625325 1.454093 20.74782 7.173708 4.0405 -24.91592 8.733628 5.359165 -17.6638 11.12641 87.46209 35.56093 -21.40355 -0 0 13.09368 -8.503176 9.30679 5.196596 7.029093 -20.52041 -1.669585 -92.73517 28.85173 19.09009 0 0 -20.61106 4.010498 16.00176 9.06744
4.307987 99.93529 21.39562 0.9043361 3.433293 0.9626525 2.743479 -19.07082 4.001924 0 -1.598065 0 -6.603052 -7.177183 3.948647 -6.946418 11.16319 -17.51441 -0 16.29122 -0 1.723099 -17.6679 17.64718 -3.230122 -3.257111 4.821072 3.12955 8.079934 -7.751145 1.381014 20.61828 7.18151 4.054603 -24.96528 8.574716 5.244132 -17.19422 11.03479 87.92013 35.51836 -21.7819 -0 0 12.32617 -8.722561 9.603917 5.348582 6.783667 -20.47657 -1.722789 -92.52629 28.54451 18.95565 0 0 -20.46282 3.958965 15.58059 9.199831
4.836377 99.73793 25.86275 0.6813985 3.737211 1.421237 3.000419 -16.9613 3.789661 0 -3.210095 0 -7.102667 -7.124197 4.295425 -6.610255 10.4858 -16.47469 -0 21.3413 -0 0.06928237 -15.35829 15.61871 -2.603377 -3.4121 4.730126 3.077861 8.004371 -7.839863 1.244742 20.57037 7.168423 4.011613 -24.88885 8.337391 5.170369 -16.71993 11.02229 88.35778 35.49368 -22.08997 -0 0 11.56147 -9.001907 9.942496 5.543997 6.37338 -20.31617 -1.809739 -92.42987 28.17953 19.04562 0 0 -20.04711 3.861726 15.1345 9.396166
